<?xml version="1.0" encoding="utf-8"?>
<!-- Generator: Adobe Illustrator 23.0.3, SVG Export Plug-In . SVG Version: 6.00 Build 0)  -->
<svg version="1.1" id="Layer_1" xmlns="http://www.w3.org/2000/svg" xmlns:xlink="http://www.w3.org/1999/xlink" x="0px" y="0px" width="68px" height="65px"
	 viewBox="0 0 68 65" style="enable-background:new 0 0 68 65;" xml:space="preserve">
<style type="text/css">
	.st0{fill:url(#Shape_1_);}
	.st1{fill:url(#SVGID_1_);}
	.st2{fill:url(#SVGID_2_);}
	.st3{fill:url(#SVGID_3_);}
	.st4{fill:url(#SVGID_4_);}
	.st5{fill:url(#SVGID_5_);}
	.st6{fill:url(#SVGID_6_);}
	.st7{fill:#FFFFFF;}
</style>
<title>ico_eath</title>
<desc>Created with Sketch.</desc>
<g id="Hotel-layout">
	<g transform="translate(-134.000000, -660.000000)">
		<g id="intro" transform="translate(0.000000, 650.000000)">
			<g transform="translate(135.000000, 0.000000)">
				<g id="ico_eath" transform="translate(0.000000, 10.000000)">
					<linearGradient id="Shape_1_" gradientUnits="userSpaceOnUse" x1="55.6091" y1="28.125" x2="58.1368" y2="28.125">
						<stop  offset="0" style="stop-color:#5191FA"/>
						<stop  offset="1" style="stop-color:#0BB1D3"/>
					</linearGradient>
					<polygon id="Shape" class="st0" points="55.6,26.8 58.1,26.8 58.1,29.4 55.6,29.4 					"/>
					<linearGradient id="SVGID_1_" gradientUnits="userSpaceOnUse" x1="13.9023" y1="30.6875" x2="16.43" y2="30.6875">
						<stop  offset="0" style="stop-color:#5191FA"/>
						<stop  offset="1" style="stop-color:#0BB1D3"/>
					</linearGradient>
					<polygon class="st1" points="13.9,29.4 16.4,29.4 16.4,32 13.9,32 					"/>
					<linearGradient id="SVGID_2_" gradientUnits="userSpaceOnUse" x1="0" y1="33.5362" x2="65.7198" y2="33.5362">
						<stop  offset="0" style="stop-color:#5191FA"/>
						<stop  offset="1" style="stop-color:#0BB1D3"/>
					</linearGradient>
					<path class="st2" d="M51.2,3.1l-1.4,2.1c2.2,1.5,4.1,3.2,5.8,5.2v5.2c0,2.9-2.1,5.3-4.9,5.7c-2.9,0.4-5.2,2.9-5.2,5.9
						c0,1.8,0.8,3.5,2.2,4.7l1.2,1c1.7,1.4,2.6,3.6,2.2,5.8c-0.3,1.8-1.3,3.3-2.9,4.3c-2.4,1.5-4.4,3.6-5.7,6.2l-1.8,3.7
						c-1,2.1-1.6,4.4-1.6,6.8v1.2c-2,0.4-4.2,0.7-6.3,0.7c-4.5,0-8.7-1-12.6-2.8c3.9-2.8,6.3-7.2,6.3-12.1c0-2.3-1.1-4.5-3.1-5.8
						l-0.4-0.3c-2-1.4-2.5-4.1-1.2-6.1c1.5-2.2,1.6-5,0.2-7.3l-1.9-3.3c-1.1-2-3.2-3.2-5.5-3.2c-2.6,0-4.9,1.6-5.8,4
						c-0.6,1.5-1.9,2.4-3.5,2.4H2.8c1.1-8.7,5.8-16.6,13.1-21.6l-1.4-2.1C5.4,9.3,0,19.6,0,30.7C0,49.1,14.7,64,32.9,64
						s32.9-14.9,32.9-33.3C65.7,19.6,60.3,9.3,51.2,3.1z M2.5,30.7c0-0.4,0-0.9,0-1.3h2.9c2.6,0,4.9-1.6,5.8-4
						c0.6-1.5,1.9-2.4,3.5-2.4c1.3,0,2.6,0.7,3.3,1.9l1.9,3.3c0.8,1.5,0.8,3.2-0.2,4.7c-2.1,3.2-1.3,7.6,1.9,9.7l0.4,0.3
						c1.2,0.8,1.9,2.2,1.9,3.7c0,4.1-2,7.9-5.3,10.1l-1,0.6C8.7,52,2.5,42.1,2.5,30.7z M41.7,60.1v-0.5c0-1.9,0.5-3.9,1.3-5.6
						l1.8-3.7c1.1-2.1,2.7-3.9,4.7-5.2c2.2-1.3,3.6-3.5,4.1-6c0.5-3.1-0.7-6.3-3.1-8.2l-1.2-1c-0.8-0.7-1.3-1.6-1.3-2.7
						c0-1.7,1.3-3.2,3-3.4c4.1-0.5,7.2-4.1,7.2-8.2v-1.8c3.2,5,5.1,10.8,5.1,17C63.2,44.5,54.1,56.3,41.7,60.1z"/>
					<linearGradient id="SVGID_3_" gradientUnits="userSpaceOnUse" x1="8.8469" y1="43.5" x2="11.3746" y2="43.5">
						<stop  offset="0" style="stop-color:#5191FA"/>
						<stop  offset="1" style="stop-color:#0BB1D3"/>
					</linearGradient>
					<polygon class="st3" points="8.8,42.2 11.4,42.2 11.4,44.8 8.8,44.8 					"/>
					<linearGradient id="SVGID_4_" gradientUnits="userSpaceOnUse" x1="48.026" y1="51.1875" x2="50.5537" y2="51.1875">
						<stop  offset="0" style="stop-color:#5191FA"/>
						<stop  offset="1" style="stop-color:#0BB1D3"/>
					</linearGradient>
					<polygon class="st4" points="48,49.9 50.6,49.9 50.6,52.5 48,52.5 					"/>
					<linearGradient id="SVGID_5_" gradientUnits="userSpaceOnUse" x1="17.6938" y1="49.9062" x2="20.2215" y2="49.9062">
						<stop  offset="0" style="stop-color:#5191FA"/>
						<stop  offset="1" style="stop-color:#0BB1D3"/>
					</linearGradient>
					<polygon class="st5" points="17.7,48.6 20.2,48.6 20.2,51.2 17.7,51.2 					"/>
					<linearGradient id="SVGID_6_" gradientUnits="userSpaceOnUse" x1="22.9565" y1="13.5509" x2="43.0824" y2="13.5509">
						<stop  offset="0" style="stop-color:#5191FA"/>
						<stop  offset="1" style="stop-color:#0BB1D3"/>
					</linearGradient>
					<path class="st6" d="M33,26.8c-0.6,0-1.2-0.3-1.6-0.9l-6.9-10.4c-1.1-1.6-1.6-3.5-1.6-5.4c0-5.5,4.5-9.9,10-9.9h0.2
						c5.5,0,10,4.4,10,9.9c0,1.9-0.6,3.8-1.6,5.4L34.6,26C34.3,26.5,33.7,26.8,33,26.8z"/>
					<path class="st7" d="M32.8,16.1c-3.3,0-6-2.7-6-6s2.7-6,6-6s6,2.7,6,6S36.1,16.1,32.8,16.1z M32.8,5.5c-2.6,0-4.7,2.1-4.7,4.7
						s2.1,4.7,4.7,4.7s4.7-2.1,4.7-4.7S35.4,5.5,32.8,5.5z"/>
				</g>
			</g>
		</g>
	</g>
</g>
</svg>
