<svg xmlns="http://www.w3.org/2000/svg" viewBox="0 0 107.53 29.4"><defs><style>.cls-1{fill:#007bf4;}.cls-2{fill:#2c82fe;}.cls-3{fill:#5b9dfe;}.cls-4{fill:#3d8cfe;}.cls-5{fill:#5198fe;}.cls-6{fill:#3b8bfe;}</style></defs><title>Asset 2</title><g id="Layer_2" data-name="Layer 2"><g id="Layer_1-2" data-name="Layer 1"><path class="cls-1" d="M0,12.85H4.67V25.22H6.4v3.86h-4C.46,29.08,0,28.56,0,26.78Z"/><path class="cls-1" d="M8.85,17.82a27.43,27.43,0,0,0-.34-5h4.71a7.72,7.72,0,0,1,.3,1.69,5.4,5.4,0,0,1,4.14-2c2.62,0,5.44,1.39,5.44,5.94V29.08H18.42V18.76c0-1.69-.69-2.37-2.18-2.37-1.83,0-2.72,1.46-2.72,4.25v8.44H8.85Z"/><path class="cls-1" d="M10.47,11.26l1.72-3.67h6.66V5.65h4.24v5.61Z"/><path class="cls-1" d="M19.18,0h3.58V5.06H19.18Z"/><path class="cls-1" d="M26.44,15.12c0-1.72.43-2.27,2.49-2.27h5v3.86H31.11c0,1,.34,1.46,1.69,1.46h2V22H32.94c-1.59,0-2.32.39-2.32,1.55,0,1.6,1.36,1.95,2.61,1.95,1.86,0,3-.84,3-3V12.85h4.7V23.63c0,4-3.28,5.77-7.42,5.77-4,0-7.56-1.29-7.56-5.51A4.23,4.23,0,0,1,28.4,20a4.4,4.4,0,0,1-2-4Z"/><path class="cls-1" d="M48.11,23.27c.47,1.43,1.1,2.27,2.42,2.27,2.42,0,3.18-1.88,3.18-4.67s-.93-4.48-3.05-4.48c-1.59,0-2.22.91-2.88,2.4l-4.31-1.33c1.43-3.47,3.81-4.93,7.19-4.93,5.11,0,7.73,3,7.73,8.34,0,5-2.06,8.53-7.86,8.53A6.45,6.45,0,0,1,44,25.15Z"/><path class="cls-1" d="M70.61,9.49V25.85h3.73v3.29H63.05V25.85h3.72V14.14l-3.12,1.47-1.31-3.27,6.18-2.85Z"/><path class="cls-1" d="M103.8,9.49V25.85h3.73v3.29H96.24V25.85H100V14.14l-3.13,1.47-1.31-3.27,6.18-2.85Z"/><path class="cls-2" d="M91.61,13.47a8.19,8.19,0,0,0-7.12-4.64c-3.92,0-6.46,1.55-8.12,4.41a7.49,7.49,0,0,0,.42,8.47,38.18,38.18,0,0,0,5.9,6.48,1.33,1.33,0,0,0,2.08,0,39.05,39.05,0,0,0,6.09-6.3C92.83,19.2,93.22,16.41,91.61,13.47ZM84,22.85a5.68,5.68,0,0,1-5.64-5.79,5.62,5.62,0,1,1,11.23.17A5.68,5.68,0,0,1,84,22.85Z"/><path class="cls-3" d="M84,21.93c3.2-1.66,4.44-3.85,3.2-7.28C89.61,17.68,88.15,21.12,84,21.93Z"/><path class="cls-4" d="M79.79,15.52c0,2.75,1.19,3.66,3.72,2.75l1.61-.58c-1.06,1.58-2.66,1.67-4.27,1.36S78.65,17.07,79.79,15.52Z"/><path class="cls-5" d="M84.88,16.8a4.89,4.89,0,0,1-2.77,1.12c-.76,0-2,0-1.47-1.49.67,1.25,1.66.78,2.66.58C83.81,16.91,84.23,15.76,84.88,16.8Z"/><path class="cls-6" d="M85.42,19.07c-1.74,1.61-3.06,1.74-4.91.51C82.22,20.19,83.82,19.64,85.42,19.07Z"/></g></g></svg>