<svg width="32px" height="32px" viewBox="0 0 38 42" version="1.1" xmlns="http://www.w3.org/2000/svg" xmlns:xlink="http://www.w3.org/1999/xlink"><g id="Page-1" stroke="none" stroke-width="1" fill="none" fill-rule="evenodd"><g id="freeCancellation-5.16.35-PM" transform="translate(-1.000000, 1.000000)"><rect id="Rectangle-5" x="0" y="0" width="40" height="40"></rect><g id="icons8-knight_shield-copy-4" transform="translate(2.000000, 0.000000)" stroke-width="1" stroke="#5191FA"><g id="Group-6" fill="#545454" fill-rule="nonzero"><g id="Group"><g id="Group-5"><path d="M17.7935278,1.0662312 C19.3299609,1.34825302 29.7050707,3.25321081 34.5383459,4.03951701 L34.5383459,21.3424468 C34.5383459,33.2114767 19.9704902,38.0855267 17.7914346,38.7470723 C15.6102857,38.0876235 1.04661654,33.2313964 1.04661654,21.3424468 L1.04661654,4.04475905 C5.77209023,3.29724396 16.2497684,1.35349506 17.7935278,1.0662312 L17.7935278,1.0662312 Z M0,3.14522476 C0,3.14522476 0,16.1591164 0,21.3424468 C0,35.081837 17.7924812,39.8395137 17.7924812,39.8395137 C17.7924812,39.8395137 35.5849624,35.081837 35.5849624,21.3424468 C35.5849624,16.1591164 35.5849624,3.14522476 35.5849624,3.14522476 C30.9400782,2.42496829 17.7924812,0 17.7924812,0 C17.7924812,0 4.4481203,2.4899696 0,3.14522476 Z" id="Shape"></path><path d="M17.7934988,5.60554455 C18.8141372,5.82470001 20.4219226,6.22325714 22.2647703,6.67889662 C24.7802421,7.30272517 27.5969193,7.99994532 30.004527,8.5147058 L30.004527,21.3235776 C30.004527,28.8666026 21.0701247,32.8542126 17.7945163,34.0600773 C14.5168729,32.8542126 5.58145301,28.8655833 5.58145301,21.3235776 L5.58145301,8.5330537 C8.36251468,7.99281003 11.5180479,7.1824445 14.1006804,6.51886217 C15.6016192,6.1335563 16.9132872,5.79615884 17.7934988,5.60554455 L17.7934988,5.60554455 Z M17.7924812,4.56379165 C15.3533284,5.06632021 9.20609321,6.8582983 4.56386733,7.68599238 L4.56386733,21.3235776 C4.56386733,29.7269152 14.3337075,33.922468 17.7934988,35.1436225 C21.2410791,33.9265453 31.021095,29.7320118 31.021095,21.3235776 L31.021095,7.68599238 C26.632248,6.79408065 20.2316341,5.06632021 17.7924812,4.56379165 L17.7924812,4.56379165 Z" id="Shape"></path></g></g></g><g id="Group-3" stroke-linecap="square" transform="translate(12.000000, 12.000000)"><path d="M0.6,0.590909091 L11.4,12.4090909" id="Line-2"></path><path d="M0.6,0.590909091 L11.4,12.4090909" id="Line-2-Copy" transform="translate(6.000000, 6.500000) scale(-1, 1) translate(-6.000000, -6.500000) "></path></g></g></g></g></svg>