<svg width="32px" height="32px" viewBox="0 0 34 34" version="1.1" xmlns="http://www.w3.org/2000/svg" xmlns:xlink="http://www.w3.org/1999/xlink"><g id="Page-1" stroke="none" stroke-width="1.3" fill="none" fill-rule="evenodd" stroke-linecap="round" stroke-linejoin="round"><g id="Tour_Detail_1" transform="translate(-335.000000, -1005.000000)" stroke="#5191FA"><g id="tour-detail" transform="translate(0.000000, 211.000000)"><g id="feauture" transform="translate(135.000000, 765.000000)"><g id="Group" transform="translate(201.000000, 25.000000)"><g id="ico_tour_type" transform="translate(0.000000, 5.000000)"><path d="M13.4810667,23.7283556 C13.7772954,25.6164963 13.043711,27.5192464 11.5566476,28.7198584 C10.0695841,29.9204704 8.05496197,30.2365427 6.27166976,29.549014 C4.48837756,28.8614852 3.20733983,27.2748074 2.91111111,25.3866667 L2.74613333,24.3299556 C2.65661545,23.7692095 2.79434998,23.1959129 3.12883306,22.7370331 C3.46331614,22.2781533 3.96694361,21.9715605 4.52817778,21.8851556 L10.8712889,20.8896 C11.432035,20.8000821 12.0053315,20.9378166 12.4642113,21.2722997 C12.9230912,21.6067828 13.2296839,22.1104103 13.3160889,22.6716444 L13.4810667,23.7283556 Z" id="Shape"></path><path d="M5.11555556,0.1408 C1.71134814,0.982901045 -0.457506858,4.31950538 0.154844444,7.77244444 L1.41777778,15.8691556 C1.60071,17.0365699 2.69505968,17.8348913 3.86257778,17.6526222 L10.2042667,16.6570667 C10.7657612,16.571 11.2697435,16.2645497 11.6045222,15.8056305 C11.9393009,15.3467113 12.0772269,14.7732252 11.9877333,14.2122667 L11.9592889,14.0088889 C11.7659953,12.7663569 11.9436025,11.4944126 12.4698667,10.3523556 C12.9981751,9.20988894 13.1758566,7.93642212 12.9804444,6.69297778 L12.7827556,5.4272 C12.5097684,3.68767687 11.5342848,2.1366314 10.0846439,1.13712946 C8.63500309,0.137627517 6.8384634,-0.222588541 5.11555556,0.1408 Z" id="Shape"></path><path d="M18.2583111,25.6995556 C17.8428835,28.5534868 19.7641913,31.223136 22.6023163,31.7355326 C25.4404413,32.2479292 28.1739846,30.4186694 28.7827556,27.5996444 L28.9719111,26.5457778 C29.1807578,25.3831626 28.4089448,24.2709374 27.2467556,24.0597333 L20.9292444,22.9219556 C20.3703881,22.8193233 19.7936791,22.9438755 19.3269888,23.2679956 C18.8602984,23.5921158 18.5421913,24.0890206 18.4432,24.6485333 L18.2583111,25.6995556 Z" id="Shape"></path><path d="M27.1770667,2.31253333 C30.5568647,3.23734789 32.6432678,6.62146013 31.9514667,10.0565333 L30.4965333,18.1233778 C30.3971763,18.68204 30.079348,19.1781018 29.6133417,19.5018508 C29.1473353,19.8255998 28.5715511,19.9503581 28.0133333,19.8485333 L21.6958222,18.7107556 C21.1363095,18.6117642 20.6394047,18.2936571 20.3152845,17.8269668 C19.9911643,17.3602764 19.8666122,16.7835675 19.9692444,16.2247111 L20.0062222,16.0170667 C20.2290597,14.7795819 20.0806008,13.5038248 19.5795556,12.3505778 C19.0784767,11.1968384 18.9300215,9.92061854 19.1528889,8.68266667 L19.3804444,7.42257778 C19.6924113,5.68717624 20.7045511,4.15653375 22.1792495,3.18999024 C23.6539479,2.22344673 25.4613226,1.90612953 27.1770667,2.31253333 Z" id="Shape"></path></g></g></g></g></g></g></svg>